<svg width="1925" height="895" viewBox="0 0 1925 895" fill="none" xmlns="http://www.w3.org/2000/svg">
<path d="M35.7759 5.01901L30.9558 10.2715L32.4228 436.563L34.0993 862.855L19.8487 863.905C9.16066 864.536 4.96929 865.796 2.8736 868.738C-1.52734 874.62 -0.689066 885.966 4.13101 890.798C8.11282 894.79 11.0468 895 47.7213 895C86.701 895 87.3298 895 91.9403 889.958C95.5029 886.176 96.5508 883.024 95.9221 876.931C95.0838 866.847 89.635 863.485 73.9174 863.485H62.8102V763.478V663.26L252.47 664.101L442.129 664.941V764.108V863.485H430.813C416.352 863.485 408.598 868.948 408.598 879.243C408.598 884.285 410.065 887.436 414.047 890.588C419.286 894.58 422.43 895 456.799 895C491.168 895 494.312 894.58 499.551 890.588C503.323 887.647 505 884.285 505 879.663C505 867.897 498.503 863.485 482.367 863.485H471.888L471.05 436.143C470.421 19.5159 470.421 8.8008 466.439 4.38871C461.829 -0.653675 451.141 -1.49407 445.273 2.91801C441.501 5.64931 441.082 8.8008 440.872 33.3824L440.662 60.9054L251.632 61.5357L62.8102 61.9559V35.4834C62.8102 10.6917 62.6007 8.8008 57.9901 4.59881C51.4935 -1.70417 41.8534 -1.49407 35.7759 5.01901ZM441.082 94.1011C439.824 95.1516 425.364 104.186 408.598 114.481C391.833 124.566 351.177 149.988 317.855 170.577C284.743 191.167 256.242 208.605 254.775 209.236C251.632 210.496 64.9059 99.3536 64.9059 96.2021C64.9059 93.891 99.2752 93.4708 281.809 92.8406C370.457 92.6305 442.129 93.2607 441.082 94.1011ZM441.501 325C440.453 325.841 398.12 301.259 352.015 272.896C296.898 239.07 282.857 230.035 282.857 228.775C282.857 227.934 284.324 226.674 286.21 226.044C287.887 225.413 318.274 206.714 353.691 184.654C389.109 162.594 423.268 141.163 429.555 137.382L441.082 130.238L441.71 227.094C441.92 280.459 441.92 324.58 441.501 325ZM135.111 175.41C152.506 185.704 179.121 201.882 194.419 211.337L222.502 228.775L213.28 234.448C200.916 242.431 78.1087 318.907 69.726 323.95L62.8102 328.152V230.246V132.549L83.3479 144.735C94.4551 151.458 117.927 165.325 135.111 175.41ZM271.121 258.399C280.342 264.282 319.113 288.443 357.045 311.974L426.202 355.045H253.518C158.583 355.045 81.6714 354.204 82.9288 353.364C85.2341 351.263 164.87 300.419 212.442 270.585C232.142 258.399 249.536 248.104 251.212 248.104C252.679 247.894 261.691 252.726 271.121 258.399ZM430.603 387.4C422.849 392.652 257.08 494.13 254.566 494.971C253.308 495.601 244.716 491.609 235.495 486.357C207.832 469.969 83.1384 392.862 77.48 388.66C72.2408 384.669 74.1269 384.458 253.518 384.458C406.293 384.458 433.956 384.879 430.603 387.4ZM121.909 451.27C199.868 499.383 222.082 513.46 222.082 514.72C222.082 515.981 217.262 519.132 148.733 561.992C117.088 581.952 84.8149 601.701 77.0609 605.903L62.8102 613.887V514.93C62.8102 460.514 63.2294 415.973 63.8581 415.973C64.2772 415.973 90.4733 431.941 121.909 451.27ZM441.291 614.938C440.872 615.358 406.084 593.507 364.379 566.405C322.466 539.092 287.258 516.401 286.001 515.981C282.857 514.3 287.887 510.938 367.313 461.565L441.082 415.763L441.71 514.93C441.92 569.556 441.71 614.517 441.291 614.938ZM267.768 540.983C282.648 550.437 322.885 576.069 377.163 610.315L413.628 633.426L251.422 634.687C162.146 635.317 88.7967 635.737 88.5872 635.527C88.3776 635.527 114.783 618.509 147.266 598.13C179.75 577.75 216.843 554.429 229.417 546.445C242.201 538.461 252.889 531.948 253.518 532.158C254.146 532.368 260.433 536.36 267.768 540.983Z" fill="black"/>
<path d="M636.703 417.07C635.227 419.53 593.402 528.292 593.402 529.769C593.402 530.261 598.814 530.753 605.703 530.753H617.759L622.187 518.45L626.616 505.9L649.742 506.638L672.623 507.377L677.051 518.45C681.234 529.523 681.48 529.523 694.273 530.261C701.408 530.753 706.575 530.015 706.329 528.784C705.837 527.554 695.503 501.471 683.448 470.712L661.552 415.101H649.742C643.346 415.101 637.441 416.086 636.703 417.07ZM657.123 465.053C661.306 475.634 664.75 484.738 664.75 485.23C664.75 485.969 658.107 486.461 649.988 486.461C641.869 486.461 635.227 485.723 635.227 484.738C635.227 482.524 648.512 444.875 649.004 445.368C649.25 445.614 652.941 454.472 657.123 465.053Z" fill="black"/>
<path d="M741.511 472.189L742.249 529.523L778.661 530.261L814.827 530.999V519.68V508.607H790.224H765.622V461.854V415.101H753.32H740.773L741.511 472.189Z" fill="black"/>
<path d="M851.731 456.194C851.731 492.858 852.224 498.272 856.898 507.868C863.295 521.156 872.644 527.8 889.128 531.245C907.088 534.936 921.603 530.753 933.413 518.449C944.976 506.146 947.682 493.35 947.682 449.55V415.101H935.381H923.08V453.241C923.08 497.041 921.111 503.931 907.334 508.607C896.755 512.052 888.39 509.837 880.763 501.963C875.35 496.303 875.104 494.089 874.366 455.456L873.628 415.101H862.557H851.731V456.194Z" fill="black"/>
<path d="M994.428 472.927V530.753H1005.5H1016.32L1017.06 493.843L1017.8 456.933L1033.3 482.77C1041.91 497.042 1050.28 508.607 1051.75 508.607C1053.47 508.607 1062.09 497.042 1070.7 482.77L1086.69 457.179L1087.43 493.843L1088.16 530.753H1100.22H1112.52V472.927V415.101H1099.24H1085.95L1071.93 438.97C1064.05 452.257 1056.18 465.053 1054.7 467.514C1052 471.205 1049.54 468.498 1034.78 443.399L1017.8 415.101H1006.24H994.428V472.927Z" fill="black"/>
<path d="M1161.73 472.927V530.753H1172.8H1183.87V472.927V415.101H1172.8H1161.73V472.927Z" fill="black"/>
<path d="M1233.07 472.927V530.753H1244.15H1254.97L1255.71 493.843L1256.45 456.933L1283.02 493.843L1309.59 530.753H1320.66H1331.49V472.927V415.101H1319.68H1308.11L1308.85 450.781C1309.59 470.466 1308.85 486.461 1307.87 486.215C1306.64 486.215 1294.09 470.22 1280.07 450.535L1254.48 415.101H1243.65H1233.07V472.927Z" fill="black"/>
<path d="M1378.23 472.927V530.753H1390.53H1402.83V472.927V415.101H1390.53H1378.23V472.927Z" fill="black"/>
<path d="M1447.12 452.503C1447.12 493.843 1449.09 504.67 1458.68 515.989C1468.03 527.308 1478.36 531.491 1495.09 531.491C1510.84 531.491 1520.93 527.554 1530.03 517.957C1541.1 506.146 1543.07 496.549 1543.07 454.472V415.101H1530.77H1518.47V454.718C1518.47 478.34 1517.48 496.057 1515.76 499.256C1511.58 507.13 1498.54 511.313 1487.96 508.361C1472.71 504.177 1470.49 498.272 1469.75 453.98L1468.77 415.101H1457.94H1447.12V452.503Z" fill="black"/>
<path d="M1589.82 472.927V530.753H1600.89H1611.71L1612.45 493.351L1613.19 456.195L1629.18 482.278C1638.04 496.796 1646.4 508.607 1648.12 508.607C1649.6 508.607 1657.97 497.042 1666.58 482.77C1675.19 468.744 1682.81 457.179 1684.04 456.933C1685.03 456.933 1685.77 473.419 1685.77 493.843V530.753H1696.84H1707.91V472.681V414.855L1695.12 415.593L1682.08 416.332L1665.1 443.891L1648.12 471.451L1630.66 443.399L1613.43 415.101H1601.62H1589.82V472.927Z" fill="black"/>
<path d="M627.354 589.563C602.997 597.437 592.172 617.615 601.767 636.316C606.441 645.42 613.822 649.849 633.75 656.247C651.71 662.153 658.599 668.797 654.663 676.425C648.512 687.744 628.584 687.744 615.544 676.671L607.671 670.273L600.045 677.901C592.664 685.283 592.664 685.775 596.846 690.451C604.965 699.309 620.957 705.461 635.965 705.461C653.433 705.461 664.258 701.278 673.115 690.451C679.266 683.315 680.004 680.854 679.02 669.043C677.543 652.064 671.393 645.666 647.282 637.546C637.441 633.855 627.6 629.918 626.124 628.688C621.695 624.997 622.187 615.646 626.862 611.709C633.012 606.788 649.25 608.018 657.615 614.17L664.75 619.583L672.131 613.924C676.313 610.971 679.512 607.28 679.512 605.557C679.512 603.835 674.591 599.406 668.686 595.961C656.877 589.071 637.933 586.118 627.354 589.563Z" fill="black"/>
<path d="M757.01 589.563C736.098 594.976 721.09 609.74 714.94 630.656C701.9 675.932 742.249 715.795 788.01 703C792.93 701.523 801.788 696.356 807.692 691.189L818.025 681.838L809.414 676.425C798.589 669.781 799.819 669.781 788.748 677.163C759.963 696.602 726.503 665.598 739.788 632.132C748.153 611.709 772.264 604.081 790.224 616.876C798.097 622.536 798.343 622.536 806.462 618.107C816.057 612.939 816.303 612.447 810.891 605.065C802.526 593.008 774.724 584.888 757.01 589.563Z" fill="black"/>
<path d="M1247.1 590.301C1242.18 591.778 1232.34 597.683 1225.69 603.835C1211.18 616.877 1204.54 634.593 1206.75 654.033C1209.46 676.179 1220.53 691.189 1240.46 700.293C1280.56 718.502 1324.6 687.006 1321.15 642.714C1319.68 625.243 1315 615.4 1302.95 603.589C1288.43 589.563 1268.26 584.642 1247.1 590.301ZM1281.54 615.646C1302.21 629.426 1301.96 665.352 1281.05 678.393C1265.06 688.236 1242.67 682.084 1234.55 665.106C1218.81 631.887 1252.27 596.453 1281.54 615.646Z" fill="black"/>
<path d="M1862.91 589.563C1835.6 597.929 1820.34 618.845 1820.59 647.881C1820.84 681.838 1844.45 705.461 1878.16 705.461C1893.91 705.461 1902.03 703 1915.31 693.896L1924.41 687.498V664.614V641.483H1902.27H1880.13V651.326V661.169H1892.43C1903.75 661.169 1904.73 661.661 1904.73 666.828C1904.73 677.163 1896.37 682.084 1878.41 682.084C1863.15 682.084 1862.17 681.592 1854.3 672.98C1824.28 640.253 1865.61 589.563 1899.07 617.861L1905.96 623.766L1914.57 616.138L1922.94 608.756L1913.83 600.636C1900.55 589.317 1879.14 584.642 1862.91 589.563Z" fill="black"/>
<path d="M883.961 595.222C881.009 602.851 844.105 696.11 842.628 699.801C841.644 702.262 844.843 703 853.7 703H866.001L870.43 691.927L874.612 680.854H897.493H920.127L924.556 691.927C928.738 703 928.738 703 940.548 703C947.19 703 952.603 702.016 952.603 701.031C952.603 700.047 942.762 674.948 930.952 645.174L909.302 591.039L897.739 590.301C887.652 589.563 885.929 590.301 883.961 595.222ZM906.842 644.682L912.992 661.169H897.247H881.255L883.961 654.279C885.437 650.588 888.882 641.729 891.588 634.347C897.247 619.337 897.247 619.337 906.842 644.682Z" fill="black"/>
<path d="M989.507 646.404V703H1001.81H1014.11V680.854V658.708H1034.53H1054.7V648.865V639.022H1034.53H1014.11V625.489V611.955H1038.96H1063.56L1062.82 601.374L1062.09 591.039L1025.92 590.301L989.507 589.563V646.404Z" fill="black"/>
<path d="M1102.68 646.404V703H1113.75H1124.82V680.854V658.708H1145.73H1166.65V648.865V639.022H1145.73H1124.82V625.489V611.955H1149.43H1174.03V600.882V589.809H1138.35H1102.68V646.404Z" fill="black"/>
<path d="M1361.01 646.404V703H1397.91H1434.82V693.157V683.315H1410.21H1385.61V636.562V589.809H1373.31H1361.01V646.404Z" fill="black"/>
<path d="M1471.72 646.158V703H1501C1528.31 703 1531.01 702.508 1543.32 696.11C1574.32 679.87 1582.68 636.562 1559.55 610.479C1546.27 595.222 1535.94 591.531 1501.98 590.301L1471.72 589.317V646.158ZM1532.74 616.876C1553.16 629.426 1552.67 663.875 1532 677.409C1528.55 679.624 1518.71 682.084 1509.86 682.822L1493.86 684.053V647.881V611.955H1509.36C1520.44 611.955 1526.83 613.431 1532.74 616.876Z" fill="black"/>
<path d="M1613.68 591.531C1612.7 592.27 1611.96 617.861 1611.96 648.127V703H1624.26H1636.56V646.404V589.809H1625.98C1620.08 589.809 1614.42 590.547 1613.68 591.531Z" fill="black"/>
<path d="M1682.57 591.531C1681.58 592.27 1680.85 617.861 1680.85 648.127V703H1693.15H1705.2L1705.94 667.32L1706.68 631.394L1732.51 667.32L1758.34 703H1768.92H1779.26V646.404V589.809H1768.19H1757.11V625.981C1756.87 655.263 1756.38 661.661 1753.92 658.216C1752.19 656.001 1740.63 639.761 1727.84 622.044L1704.71 589.809H1694.38C1688.72 589.809 1683.31 590.547 1682.57 591.531Z" fill="black"/>
<path d="M743.479 762.794C731.424 766.732 713.218 785.679 709.527 797.982C703.13 819.882 707.067 840.798 720.844 856.054C732.9 869.342 745.939 875.247 764.637 875.247C825.898 875.493 842.874 790.108 786.534 764.271C775.463 759.103 757.011 758.611 743.479 762.794ZM784.566 789.37C797.605 801.673 800.558 817.914 792.931 835.138C781.859 859.253 747.169 859.745 734.868 835.876C730.194 826.526 730.194 808.071 734.868 798.72C743.971 781.496 770.296 776.328 784.566 789.37Z" fill="black"/>
<path d="M1300.24 764.271C1288.68 769.684 1283.26 776.574 1281.05 789.37C1277.85 806.84 1289.66 819.636 1316.48 827.51C1329.03 831.201 1338.87 838.091 1338.87 843.258C1338.87 844.489 1336.65 847.934 1333.95 850.64C1326.57 858.022 1310.08 857.284 1298.27 849.164L1288.92 843.012L1282.03 849.656C1275.15 856.054 1275.15 856.546 1279.33 861.221C1286.46 869.342 1304.42 875.985 1319.18 875.985C1345.51 875.985 1361.01 862.698 1361.01 840.06C1361.01 824.557 1353.14 816.437 1331.24 809.055C1304.67 800.197 1297.53 791.584 1309.84 783.218C1317.71 777.558 1329.52 778.297 1339.6 785.186L1348.22 791.092L1355.1 783.956C1362.98 775.59 1361.5 772.391 1345.26 764.763C1332.22 758.365 1314.02 758.119 1300.24 764.271Z" fill="black"/>
<path d="M590.942 771.899V781.742H608.164H625.386V827.264V872.787H635.227C640.639 872.787 645.806 872.541 646.544 872.048C647.282 871.802 647.774 851.379 647.528 826.526L647.282 781.742H664.75H681.972V771.899V762.056H636.457H590.942V771.899Z" fill="black"/>
<path d="M855.914 804.134C863.295 827.264 871.168 852.363 873.382 859.745L877.564 873.525H889.62H901.675L913.484 836.861C919.881 816.683 925.786 801.919 926.524 803.888C927.262 805.856 932.183 822.343 937.841 840.059L947.928 872.786H959.984H971.793L979.174 849.902C983.356 837.599 990.737 814.222 995.658 798.228C1000.58 782.234 1005.01 767.716 1005.99 765.747C1006.98 762.794 1004.76 762.056 994.92 762.056H982.618L978.682 774.852C976.714 781.988 971.793 799.212 968.103 812.992C964.412 827.018 960.476 838.337 959.492 838.337C958.262 838.337 957.523 836.861 957.523 835.138C957.523 833.416 952.603 816.191 946.452 796.998L935.135 762.056H924.802H914.223L903.397 799.212C897.493 819.636 891.834 836.615 890.85 837.107C889.62 838.091 879.287 805.118 870.922 773.621L867.969 762.056H855.176H842.382L855.914 804.134Z" fill="black"/>
<path d="M1041.17 817.421V872.787H1078.82H1116.46L1115.47 862.944L1114.49 853.101H1088.66H1063.07L1063.81 840.06L1064.55 827.264L1087.43 826.526L1110.06 825.788V816.191V806.348H1086.69H1063.32V794.045V781.742H1089.15H1114.98V771.899V762.056H1078.08H1041.17V817.421Z" fill="black"/>
<path d="M1156.81 817.421V872.787H1169.11H1181.41V853.101V833.416H1188.3C1193.96 833.416 1196.42 835.877 1206.01 853.101L1217.08 872.787H1231.11H1244.88L1232.83 852.609L1220.53 832.432L1228.15 826.526C1249.56 809.793 1247.1 778.297 1223.23 766.485C1216.59 763.041 1208.23 762.056 1185.84 762.056H1156.81V817.421ZM1212.9 785.679C1219.79 790.354 1220.28 803.888 1213.88 809.547C1211.42 811.762 1203.06 814.223 1195.43 815.207L1181.41 816.929V799.212V781.742H1194.45C1202.08 781.742 1209.46 783.218 1212.9 785.679Z" fill="black"/>
<path d="M670.446 150.23C669.736 142.418 666.575 136.345 660.965 132.013C655.425 127.609 647.506 125.408 637.207 125.408C630.389 125.408 624.707 126.295 620.162 128.071C615.617 129.847 612.207 132.297 609.935 135.422C607.662 138.476 606.49 141.991 606.419 145.969C606.277 149.236 606.916 152.112 608.337 154.598C609.828 157.084 611.959 159.285 614.729 161.203C617.57 163.05 620.979 164.683 624.956 166.104C628.933 167.524 633.408 168.767 638.379 169.832L657.129 174.094C667.925 176.437 677.442 179.562 685.68 183.469C693.99 187.375 700.95 192.027 706.561 197.425C712.243 202.822 716.54 209.037 719.452 216.068C722.364 223.099 723.855 230.983 723.926 239.719C723.855 253.497 720.375 265.322 713.486 275.195C706.597 285.067 696.689 292.631 683.763 297.886C670.908 303.142 655.389 305.77 637.207 305.77C618.955 305.77 603.045 303.035 589.48 297.567C575.915 292.098 565.368 283.788 557.84 272.638C550.311 261.487 546.44 247.389 546.227 230.344H596.724C597.151 237.375 599.033 243.234 602.371 247.922C605.709 252.609 610.29 256.16 616.114 258.575C622.009 260.99 628.827 262.197 636.568 262.197C643.67 262.197 649.707 261.239 654.679 259.321C659.722 257.403 663.592 254.74 666.291 251.331C668.99 247.922 670.375 244.016 670.446 239.612C670.375 235.493 669.097 231.977 666.611 229.065C664.125 226.082 660.29 223.526 655.105 221.395C649.992 219.193 643.457 217.169 635.503 215.322L612.705 209.996C593.813 205.663 578.933 198.668 568.067 189.009C557.2 179.278 551.803 166.139 551.874 149.591C551.803 136.097 555.425 124.271 562.74 114.115C570.055 103.959 580.176 96.0398 593.102 90.3579C606.028 84.6761 620.766 81.8352 637.314 81.8352C654.217 81.8352 668.884 84.7116 681.313 90.4645C693.813 96.1463 703.507 104.136 710.396 114.435C717.286 124.733 720.801 136.665 720.943 150.23H670.446Z" fill="black"/>
<path d="M750.56 303V84.8182H803.294V172.389H889.267V84.8182H941.895V303H889.267V215.322H803.294V303H750.56Z" fill="black"/>
<path d="M974.974 303V84.8182H1065.1C1081.44 84.8182 1095.53 87.7656 1107.4 93.6605C1119.33 99.4844 1128.52 107.865 1134.99 118.803C1141.45 129.669 1144.68 142.56 1144.68 157.474C1144.68 172.602 1141.38 185.457 1134.77 196.04C1128.17 206.551 1118.79 214.577 1106.65 220.116C1094.51 225.585 1080.12 228.32 1063.5 228.32H1006.51V186.771H1053.7C1061.66 186.771 1068.3 185.741 1073.62 183.682C1079.02 181.551 1083.11 178.355 1085.88 174.094C1088.65 169.761 1090.03 164.222 1090.03 157.474C1090.03 150.727 1088.65 145.152 1085.88 140.749C1083.11 136.274 1079.02 132.936 1073.62 130.734C1068.23 128.462 1061.59 127.325 1053.7 127.325H1027.71V303H974.974ZM1097.81 203.284L1152.14 303H1094.61L1041.34 203.284H1097.81Z" fill="black"/>
<path d="M1226.34 84.8182V303H1173.61V84.8182H1226.34Z" fill="black"/>
<path d="M1348.08 84.8182H1400.07V235.67C1400 249.804 1396.63 262.162 1389.95 272.744C1383.27 283.256 1374.04 291.423 1362.25 297.247C1350.53 303.071 1336.97 305.983 1321.56 305.983C1307.92 305.983 1295.53 303.604 1284.38 298.845C1273.3 294.087 1264.45 286.7 1257.85 276.686C1251.31 266.672 1248.08 253.852 1248.15 238.227H1300.68C1300.89 243.838 1301.95 248.632 1303.87 252.609C1305.86 256.516 1308.59 259.463 1312.07 261.452C1315.55 263.44 1319.71 264.435 1324.54 264.435C1329.58 264.435 1333.84 263.369 1337.32 261.239C1340.8 259.037 1343.43 255.805 1345.21 251.544C1347.05 247.283 1348.01 241.991 1348.08 235.67V84.8182Z" fill="black"/>
<path d="M1480.37 303H1423.7L1497.31 84.8182H1567.52L1641.13 303H1584.46L1533.21 139.79H1531.51L1480.37 303ZM1472.81 217.134H1591.27V257.19H1472.81V217.134Z" fill="black"/>
<path d="M1850.31 84.8182V303H1805.57L1718.74 177.077H1717.36V303H1664.62V84.8182H1710.01L1795.87 210.528H1797.68V84.8182H1850.31Z" fill="black"/>
</svg>
